<?xml version="1.0" encoding="utf-8"?>
<!-- Svg Vector Icons : http://www.onlinewebfonts.com/icon -->
<!DOCTYPE svg PUBLIC "-//W3C//DTD SVG 1.1//EN" "http://www.w3.org/Graphics/SVG/1.1/DTD/svg11.dtd">
<svg version="1.1" xmlns="http://www.w3.org/2000/svg" xmlns:xlink="http://www.w3.org/1999/xlink" x="0px" y="0px" viewBox="0 0 256 256" enable-background="new 0 0 256 256" xml:space="preserve">
<metadata> Svg Vector Icons : http://www.onlinewebfonts.com/icon </metadata>
<g><g><g><g><path fill="#000000" d="M226.9,101.9h-8.5c-2.1,0-5.4-2.6-6.9-6.2c-0.5-1.3-1-2.6-1.6-3.9c-1.6-3.6-1-7.8,0.4-9.2l6-6c7.4-7.4,7.4-19.5,0-27l-10-10C202.8,36,198,34,192.9,34c-5.1,0-9.9,2-13.5,5.6l-6,6c-0.9,0.9-2.6,1.4-4.6,1.4c-1.6,0-3.3-0.3-4.7-1c-1.3-0.6-2.6-1.1-3.9-1.6c-3.7-1.4-6.2-4.8-6.2-6.9v-8.5c0-10.5-8.5-19.1-19.1-19.1h-14.1c-10.5,0-19.1,8.5-19.1,19.1v8.5c0,2.1-2.6,5.4-6.2,6.9c-1.3,0.5-2.6,1-3.9,1.6c-1.4,0.6-3.1,1-4.7,1c-2,0-3.7-0.5-4.6-1.4l-6-6C72.9,35.9,68.1,34,63,34c-5.1,0-9.9,2-13.5,5.6l-10,10c-7.4,7.4-7.4,19.5,0,27l6,6c1.5,1.5,2,5.7,0.4,9.3c-0.6,1.3-1.1,2.6-1.6,3.9c-1.4,3.7-4.8,6.2-6.9,6.2h-8.4c-10.5,0-19.1,8.6-19.1,19.1v14.1c0,10.5,8.5,19.1,19.1,19.1h8.5c2.1,0,5.4,2.6,6.9,6.2c0.5,1.3,1,2.6,1.6,3.9c1.6,3.6,1,7.8-0.4,9.3l-6,6c-7.4,7.4-7.4,19.5,0,27l10,10c3.6,3.6,8.4,5.6,13.5,5.6c5.1,0,9.9-2,13.5-5.6l6-6c0.9-0.9,2.6-1.4,4.6-1.4c1.6,0,3.3,0.3,4.7,1c1.3,0.6,2.6,1.1,3.9,1.6c3.7,1.4,6.2,4.8,6.2,6.9v8.5c0,10.5,8.5,19.1,19.1,19.1h14.1c10.5,0,19.1-8.6,19.1-19.1v-8.5c0-2.1,2.6-5.4,6.2-6.9c1.3-0.5,2.6-1,3.9-1.6c1.4-0.6,3.1-1,4.7-1c2,0,3.7,0.5,4.6,1.4l6,6c3.6,3.6,8.4,5.6,13.5,5.6c0.6,0,1.1,0,1.7-0.1c7-0.6,13.1-6.8,16.4-10.1l0.4-0.4l5-5c7.4-7.4,7.4-19.5,0-27l-6-6c-1.5-1.5-2-5.7-0.4-9.3c0.6-1.3,1.1-2.6,1.6-3.9c1.4-3.7,4.8-6.2,6.9-6.2h8.5c10.5,0,19.1-8.6,19.1-19.1V121C246,110.4,237.5,101.9,226.9,101.9z M179.6,128c0,28.4-23.1,51.6-51.6,51.6c-28.4,0-51.6-23.1-51.6-51.6c0-28.4,23.1-51.6,51.6-51.6C156.5,76.4,179.6,99.6,179.6,128z"/></g></g><g></g><g></g><g></g><g></g><g></g><g></g><g></g><g></g><g></g><g></g><g></g><g></g><g></g><g></g><g></g></g></g>
</svg>